<svg xmlns="http://www.w3.org/2000/svg" viewBox="0 0 2560 1620" width="2560" height="1620" role="img" aria-label="MetHere vertical lockup (mint-on-dark)">
  <title>MetHere vertical lockup (mint-on-dark)</title>
  <desc>Glyph stacked above wordmark. See docs/brand/wordmark-spec.md §10.</desc>
  <rect width="2560" height="1620" fill="#111014"/>
  <g id="glyph">
    <circle cx="1280.00" cy="520.00" r="101.56" fill="#FF8C6A"/>
    <circle cx="1139.34" cy="440.27" r="46.72" fill="#2DD4A8"/>
    <circle cx="1436.41" cy="442.81" r="39.61" fill="#2DD4A8"/>
    <circle cx="1405.94" cy="661.17" r="35.55" fill="#2DD4A8"/>
    <circle cx="1162.19" cy="651.02" r="30.47" fill="#2DD4A8"/>
  </g>
  <g id="wordmark">
    <g transform="translate(274.94 1236) scale(0.483221 -0.483221)">
      <path d="M66 0V745H216L495 375H425L696 745H846V0H691V574L753 560L466 190H446L169 560L221 574V0Z" fill="#2DD4A8"/>
    </g>
    <g transform="translate(705.64 1236) scale(0.483221 -0.483221)">
      <path d="M318 -12Q231 -12 167.0 26.5Q103 65 68.0 130.0Q33 195 33 274Q33 356 69.5 420.0Q106 484 168.0 521.0Q230 558 308 558Q373 558 423.0 537.5Q473 517 507.5 480.0Q542 443 560.0 394.5Q578 346 578 289Q578 273 576.5 257.5Q575 242 571 231H162V341H486L415 289Q425 332 414.0 365.5Q403 399 375.5 418.5Q348 438 308 438Q269 438 241.0 419.0Q213 400 199.0 363.0Q185 326 188 273Q184 227 199.0 192.0Q214 157 245.0 137.5Q276 118 320 118Q360 118 388.5 134.0Q417 150 433 178L553 121Q537 81 502.5 51.0Q468 21 421.0 4.5Q374 -12 318 -12Z" fill="#2DD4A8"/>
    </g>
    <g transform="translate(990.89 1236) scale(0.483221 -0.483221)">
      <path d="M318 -6Q219 -6 164.5 47.5Q110 101 110 197V416H18V546H23Q65 546 87.5 567.0Q110 588 110 630V670H260V546H388V416H260V207Q260 179 270.0 160.5Q280 142 301.0 133.0Q322 124 353 124Q360 124 369.0 125.0Q378 126 388 127V0Q373 -2 354.0 -4.0Q335 -6 318 -6Z" fill="#2DD4A8"/>
    </g>
    <g transform="translate(1184.32 1236) scale(0.483221 -0.483221)">
      <path d="M66 0V745H221V423H511V745H666V0H511V288H221V0Z" fill="#2DD4A8"/>
    </g>
    <g transform="translate(1528.04 1236) scale(0.483221 -0.483221)">
      <path d="M318 -12Q231 -12 167.0 26.5Q103 65 68.0 130.0Q33 195 33 274Q33 356 69.5 420.0Q106 484 168.0 521.0Q230 558 308 558Q373 558 423.0 537.5Q473 517 507.5 480.0Q542 443 560.0 394.5Q578 346 578 289Q578 273 576.5 257.5Q575 242 571 231H162V341H486L415 289Q425 332 414.0 365.5Q403 399 375.5 418.5Q348 438 308 438Q269 438 241.0 419.0Q213 400 199.0 363.0Q185 326 188 273Q184 227 199.0 192.0Q214 157 245.0 137.5Q276 118 320 118Q360 118 388.5 134.0Q417 150 433 178L553 121Q537 81 502.5 51.0Q468 21 421.0 4.5Q374 -12 318 -12Z" fill="#2DD4A8"/>
    </g>
    <g transform="translate(1813.29 1236) scale(0.483221 -0.483221)">
      <path d="M55 0V546H195V415L185 434Q203 503 244.5 527.5Q286 552 343 552H375V422H328Q273 422 239.0 388.5Q205 355 205 294V0Z" fill="#2DD4A8"/>
    </g>
    <g transform="translate(1989.81 1236) scale(0.483221 -0.483221)">
      <path d="M318 -12Q231 -12 167.0 26.5Q103 65 68.0 130.0Q33 195 33 274Q33 356 69.5 420.0Q106 484 168.0 521.0Q230 558 308 558Q373 558 423.0 537.5Q473 517 507.5 480.0Q542 443 560.0 394.5Q578 346 578 289Q578 273 576.5 257.5Q575 242 571 231H162V341H486L415 289Q425 332 414.0 365.5Q403 399 375.5 418.5Q348 438 308 438Q269 438 241.0 419.0Q213 400 199.0 363.0Q185 326 188 273Q184 227 199.0 192.0Q214 157 245.0 137.5Q276 118 320 118Q360 118 388.5 134.0Q417 150 433 178L553 121Q537 81 502.5 51.0Q468 21 421.0 4.5Q374 -12 318 -12Z" fill="#2DD4A8"/>
    </g>
  </g>
</svg>
